# Blender v2.78 (sub 0) OBJ File: ''
# www.blender.org
mtllib scaledTop1.mtl
o object_28
v -9.348722 1.416847 0.755332
v -9.428712 1.416847 1.009238
v -5.696660 1.416844 5.918641
v -9.141184 1.416847 0.274219
v -9.491458 1.416846 1.269928
v -9.536190 1.416846 1.535626
v -9.562382 1.416846 1.804444
v -9.569777 1.416846 2.074434
v -8.878856 1.416850 -0.162640
v -2.636993 1.416850 -6.237330
v -3.548242 1.416850 -6.128610
v -3.999025 1.416850 -5.989949
v -3.090856 1.416850 -6.210646
v -4.432765 1.416850 -5.795880
v -5.538528 1.416850 -4.929834
v -5.210381 1.416850 -5.258850
v -4.839476 1.416850 -5.550160
v -5.819190 1.416849 -4.572158
v 6.030455 1.416844 5.918641
v 6.152986 1.416851 -4.572158
v -9.334479 1.416845 3.375130
v -9.480663 1.416846 2.871968
v -9.128435 1.416845 3.841185
v -9.528502 1.416846 2.610094
v -8.862992 1.416844 4.276158
v -8.532937 1.416844 4.683105
v -8.345056 1.416844 4.871697
v -9.558389 1.416846 2.343629
v -7.928493 1.416844 5.210978
v -7.702458 1.416844 5.358819
v -7.466667 1.416844 5.490549
v -8.143169 1.416844 5.048159
v -7.222874 1.416844 5.605267
v -6.972923 1.416844 5.702330
v -6.205126 1.416844 5.885120
v -6.718716 1.416844 5.781359
v 2.970789 1.416850 -6.237330
v 3.882037 1.416850 -6.128610
v 3.424651 1.416850 -6.210646
v 4.332820 1.416850 -5.989949
v 4.766560 1.416850 -5.795880
v 5.544177 1.416850 -5.258850
v 5.173271 1.416850 -5.550160
v 5.872324 1.416850 -4.929834
v 9.212651 1.416850 -0.162640
v 9.474978 1.416847 0.274219
v 9.682518 1.416847 0.755332
v 9.825254 1.416846 1.269928
v 9.762507 1.416847 1.009238
v 9.896177 1.416846 1.804444
v 9.869986 1.416846 1.535626
v 9.903573 1.416846 2.074434
v 7.800463 1.416844 5.490549
v 8.036254 1.416844 5.358819
v 8.262289 1.416844 5.210978
v 7.556670 1.416844 5.605267
v 7.052512 1.416844 5.781359
v 6.538921 1.416844 5.885120
v 7.306719 1.416844 5.702330
v 8.476965 1.416844 5.048159
v 9.814460 1.416846 2.871968
v 9.668276 1.416845 3.375130
v 9.862297 1.416846 2.610094
v 9.462231 1.416845 3.841185
v 8.678851 1.416844 4.871697
v 8.866734 1.416844 4.683105
v 9.196788 1.416844 4.276158
v 9.892184 1.416846 2.343629
v -5.771941 1.416850 -4.560631
v 3.065887 1.416851 -6.262422
v 6.177393 1.416851 -4.581608
vt 0.0000 0.0000
vt 0.0000 0.0000
vt 0.0000 0.0000
vt 0.0114 0.5738
vt 0.0072 0.5942
vt 0.1989 0.9902
vt 0.0220 0.5350
vt 0.0040 0.6153
vt 0.0017 0.6367
vt 0.0004 0.6584
vt 0.0000 0.6802
vt 0.0355 0.4997
vt 0.3560 0.0098
vt 0.3092 0.0186
vt 0.2861 0.0298
vt 0.3327 0.0120
vt 0.2638 0.0454
vt 0.2070 0.1153
vt 0.2239 0.0887
vt 0.2429 0.0652
vt 0.1926 0.1441
vt 0.8011 0.9902
vt 0.8074 0.1441
vt 0.0121 0.7851
vt 0.0046 0.7445
vt 0.0227 0.8226
vt 0.0021 0.7234
vt 0.0363 0.8577
vt 0.0532 0.8905
vt 0.0629 0.9058
vt 0.0006 0.7019
vt 0.0843 0.9331
vt 0.0959 0.9450
vt 0.1080 0.9557
vt 0.0733 0.9200
vt 0.1205 0.9649
vt 0.1334 0.9728
vt 0.1728 0.9875
vt 0.1464 0.9791
vt 0.6440 0.0098
vt 0.6908 0.0186
vt 0.6673 0.0120
vt 0.7139 0.0298
vt 0.7362 0.0454
vt 0.7761 0.0887
vt 0.7571 0.0652
vt 0.7930 0.1153
vt 0.9645 0.4997
vt 0.9780 0.5350
vt 0.9886 0.5738
vt 0.9960 0.6153
vt 0.9928 0.5942
vt 0.9996 0.6584
vt 0.9983 0.6367
vt 1.0000 0.6802
vt 0.8920 0.9557
vt 0.9041 0.9450
vt 0.9157 0.9331
vt 0.8795 0.9649
vt 0.8536 0.9791
vt 0.8272 0.9875
vt 0.8666 0.9728
vt 0.9267 0.9200
vt 0.9954 0.7445
vt 0.9879 0.7851
vt 0.9979 0.7234
vt 0.9773 0.8226
vt 0.9371 0.9058
vt 0.9468 0.8905
vt 0.9637 0.8577
vt 0.9994 0.7019
vn -0.0000 1.0000 0.0000
usemtl None.002
s off
f 71/1/1 70/2/1 69/3/1
s 1
f 1/4/1 2/5/1 3/6/1
f 3/6/1 4/7/1 1/4/1
f 3/6/1 2/5/1 5/8/1
f 3/6/1 6/9/1 7/10/1
f 3/6/1 5/8/1 6/9/1
f 3/6/1 7/10/1 8/11/1
f 3/6/1 9/12/1 4/7/1
f 10/13/1 11/14/1 12/15/1
f 11/14/1 10/13/1 13/16/1
f 14/17/1 10/13/1 12/15/1
f 15/18/1 10/13/1 16/19/1
f 10/13/1 14/17/1 17/20/1
f 17/20/1 16/19/1 10/13/1
f 18/21/1 10/13/1 15/18/1
f 3/6/1 19/22/1 9/12/1
f 20/23/1 18/21/1 9/12/1
f 21/24/1 3/6/1 22/25/1
f 23/26/1 3/6/1 21/24/1
f 24/27/1 22/25/1 3/6/1
f 25/28/1 26/29/1 3/6/1
f 26/29/1 27/30/1 3/6/1
f 23/26/1 25/28/1 3/6/1
f 3/6/1 28/31/1 24/27/1
f 29/32/1 30/33/1 3/6/1
f 30/33/1 31/34/1 3/6/1
f 3/6/1 32/35/1 29/32/1
f 3/6/1 33/36/1 34/37/1
f 35/38/1 3/6/1 36/39/1
f 34/37/1 36/39/1 3/6/1
f 3/6/1 31/34/1 33/36/1
f 3/6/1 27/30/1 32/35/1
f 3/6/1 8/11/1 28/31/1
f 37/40/1 10/13/1 18/21/1
f 38/41/1 39/42/1 37/40/1
f 37/40/1 40/43/1 38/41/1
f 41/44/1 40/43/1 37/40/1
f 37/40/1 42/45/1 43/46/1
f 42/45/1 37/40/1 44/47/1
f 43/46/1 41/44/1 37/40/1
f 20/23/1 44/47/1 37/40/1
f 45/48/1 9/12/1 19/22/1
f 19/22/1 46/49/1 45/48/1
f 19/22/1 47/50/1 46/49/1
f 48/51/1 49/52/1 19/22/1
f 19/22/1 50/53/1 51/54/1
f 48/51/1 19/22/1 51/54/1
f 49/52/1 47/50/1 19/22/1
f 45/48/1 20/23/1 9/12/1
f 50/53/1 19/22/1 52/55/1
f 19/22/1 53/56/1 54/57/1
f 54/57/1 55/58/1 19/22/1
f 56/59/1 53/56/1 19/22/1
f 57/60/1 19/22/1 58/61/1
f 19/22/1 57/60/1 59/62/1
f 59/62/1 56/59/1 19/22/1
f 60/63/1 19/22/1 55/58/1
f 61/64/1 19/22/1 62/65/1
f 19/22/1 61/64/1 63/66/1
f 19/22/1 64/67/1 62/65/1
f 65/68/1 19/22/1 60/63/1
f 19/22/1 65/68/1 66/69/1
f 66/69/1 67/70/1 19/22/1
f 19/22/1 67/70/1 64/67/1
f 68/71/1 19/22/1 63/66/1
f 68/71/1 52/55/1 19/22/1
f 37/40/1 18/21/1 20/23/1
